<svg width="340" height="256" viewBox="0 0 340 256" fill="none" xmlns="http://www.w3.org/2000/svg">
<g clip-path="url(#clip0_106_290)">
<path d="M77.1765 254.74V123.543L36.4884 86.3195L0.00244141 65.6631V231.587C0.00244141 244.398 10.3817 254.74 23.1552 254.74H77.1765Z" fill="#4285F4"/>
<path d="M262.394 254.74H316.415C329.227 254.74 339.568 244.36 339.568 231.588V65.665L298.242 89.3245L262.394 123.544V254.74Z" fill="#34A853"/>
<path d="M77.1766 123.543L71.6401 72.2809L77.1766 23.2178L169.785 92.6747L262.393 23.2178L268.586 69.632L262.393 123.543L169.785 193L77.1766 123.543Z" fill="#EA4335"/>
<path d="M262.394 23.2173V123.543L339.568 65.6629V34.793C339.568 6.16216 306.885 -10.1595 284.004 7.01107L262.394 23.2173Z" fill="#FBBC04"/>
<path d="M0.00244141 65.6635L35.4962 92.2849L77.1765 123.543V23.2179L55.5664 7.01168C32.6458 -10.1602 0.00244141 6.16277 0.00244141 34.7923V65.6635Z" fill="#C5221F"/>
</g>
<defs>
<clipPath id="clip0_106_290">
<rect width="339.57" height="256" fill="white"/>
</clipPath>
</defs>
</svg>
