<svg width="255" height="256" viewBox="0 0 255 256" fill="none" xmlns="http://www.w3.org/2000/svg">
<g clip-path="url(#clip0_106_296)">
<path d="M5.42289 126.468C5.41694 147.977 11.037 168.979 21.7235 187.491L4.40088 250.739L69.1272 233.767C87.0296 243.513 107.088 248.62 127.471 248.621H127.525C194.814 248.621 249.589 193.866 249.618 126.565C249.631 93.9525 236.942 63.2861 213.888 40.2143C190.838 17.1445 160.183 4.43285 127.52 4.41797C60.2228 4.41797 5.45167 59.1702 5.42389 126.468" fill="url(#paint0_linear_106_296)"/>
<path d="M1.0639 126.428C1.05696 148.711 6.87848 170.464 17.946 189.638L0.00219727 255.154L67.0494 237.574C85.5231 247.646 106.323 252.957 127.487 252.965H127.542C197.245 252.965 253.988 196.24 254.018 126.529C254.03 92.7454 240.884 60.9766 217.007 37.0783C193.126 13.183 161.374 0.0138915 127.542 0C57.8264 0 1.09169 56.7169 1.0639 126.428ZM40.993 186.336L38.4895 182.362C27.9657 165.629 22.4111 146.292 22.4191 126.436C22.4409 68.4939 69.5965 21.3532 127.581 21.3532C155.662 21.3651 182.052 32.3116 201.901 52.1724C221.749 72.0352 232.67 98.4389 232.664 126.522C232.638 184.464 185.481 231.611 127.542 231.611H127.5C108.635 231.601 90.1321 226.534 73.9961 216.96L70.1561 214.683L30.369 225.114L40.993 186.336Z" fill="url(#paint1_linear_106_296)"/>
<path d="M95.9308 73.5729C93.5633 68.311 91.0717 68.2049 88.8203 68.1126C86.9767 68.0332 84.8692 68.0392 82.7636 68.0392C80.6561 68.0392 77.2318 68.832 74.3375 71.9923C71.4401 75.1556 63.2759 82.7998 63.2759 98.3474C63.2759 113.896 74.6004 128.922 76.1791 131.032C77.7597 133.139 98.0413 166.065 130.162 178.732C156.858 189.259 162.29 187.165 168.084 186.638C173.879 186.112 186.782 178.995 189.414 171.616C192.049 164.238 192.049 157.913 191.259 156.591C190.469 155.275 188.362 154.484 185.201 152.904C182.04 151.324 166.503 143.678 163.607 142.623C160.71 141.57 158.603 141.044 156.496 144.208C154.388 147.367 148.336 154.484 146.492 156.591C144.649 158.704 142.805 158.967 139.645 157.386C136.483 155.801 126.305 152.468 114.231 141.703C104.836 133.326 98.4937 122.982 96.6501 119.818C94.8065 116.658 96.4527 114.946 98.0373 113.371C99.4572 111.955 101.199 109.681 102.78 107.836C104.356 105.991 104.882 104.674 105.936 102.566C106.99 100.457 106.462 98.6113 105.674 97.0307C104.882 95.45 98.7408 79.8211 95.9308 73.5729Z" fill="white"/>
</g>
<defs>
<linearGradient id="paint0_linear_106_296" x1="12265.3" y1="24636.5" x2="12265.3" y2="4.41797" gradientUnits="userSpaceOnUse">
<stop stop-color="#1FAF38"/>
<stop offset="1" stop-color="#60D669"/>
</linearGradient>
<linearGradient id="paint1_linear_106_296" x1="12700.8" y1="25515.4" x2="12700.8" y2="0" gradientUnits="userSpaceOnUse">
<stop stop-color="#F9F9F9"/>
<stop offset="1" stop-color="white"/>
</linearGradient>
<clipPath id="clip0_106_296">
<rect width="254.02" height="256" fill="white"/>
</clipPath>
</defs>
</svg>
