<svg width="256" height="256" viewBox="0 0 256 256" fill="none" xmlns="http://www.w3.org/2000/svg">
<path d="M128.011 21.333C69.0773 21.333 21.344 69.0663 21.344 128C21.3312 150.391 28.3691 172.217 41.4593 190.383C54.5496 208.549 73.0276 222.132 94.272 229.205C99.6053 230.133 101.611 226.933 101.611 224.128C101.611 221.6 101.472 213.205 101.472 204.266C74.6773 209.205 67.744 197.738 65.6107 191.733C64.4053 188.661 59.2107 179.2 54.6773 176.661C50.944 174.666 45.6107 169.728 54.5387 169.6C62.944 169.461 68.9387 177.333 70.944 180.533C80.544 196.661 95.872 192.128 102.005 189.333C102.944 182.4 105.739 177.738 108.811 175.072C85.0773 172.405 60.2773 163.2 60.2773 122.4C60.2773 110.794 64.4053 101.205 71.2107 93.7383C70.144 91.0717 66.4107 80.1383 72.2773 65.4717C72.2773 65.4717 81.2053 62.6663 101.611 76.3943C110.295 73.9879 119.266 72.7785 128.277 72.7997C137.344 72.7997 146.411 73.9943 154.944 76.3943C175.349 62.5277 184.277 65.4717 184.277 65.4717C190.144 80.1383 186.411 91.0717 185.344 93.7383C192.139 101.205 196.277 110.666 196.277 122.4C196.277 163.338 171.349 172.405 147.616 175.072C151.477 178.4 154.816 184.8 154.816 194.805C154.816 209.066 154.677 220.533 154.677 224.138C154.677 226.933 156.683 230.261 162.016 229.194C183.188 222.044 201.584 208.434 214.617 190.282C227.649 172.129 234.661 150.346 234.667 128C234.667 69.0663 186.933 21.333 128 21.333" fill="black"/>
</svg>
