<svg width="200" height="200" viewBox="0 0 200 200" fill="none" xmlns="http://www.w3.org/2000/svg">
<g clip-path="url(#clip0_96_132)">
<path d="M71.0938 201.562C89.6875 201.562 104.688 186.562 104.688 167.969V134.375H71.0938C52.5 134.375 37.5 149.375 37.5 167.969C37.5 186.562 52.5 201.562 71.0938 201.562Z" fill="#0ACF83"/>
<path d="M37.5 100.781C37.5 82.1875 52.5 67.1875 71.0938 67.1875H104.688V134.375H71.0938C52.5 134.375 37.5 119.375 37.5 100.781Z" fill="#A259FF"/>
<path d="M37.5 33.5938C37.5 15 52.5 0 71.0938 0H104.688V67.1875H71.0938C52.5 67.1875 37.5 52.1875 37.5 33.5938Z" fill="#F24E1E"/>
<path d="M104.688 0H138.281C156.875 0 171.875 15 171.875 33.5938C171.875 52.1875 156.875 67.1875 138.281 67.1875H104.688V0Z" fill="#FF7262"/>
<path d="M171.875 100.781C171.875 119.375 156.875 134.375 138.281 134.375C119.688 134.375 104.688 119.375 104.688 100.781C104.688 82.1875 119.688 67.1875 138.281 67.1875C156.875 67.1875 171.875 82.1875 171.875 100.781Z" fill="#1ABCFE"/>
</g>
<defs>
<clipPath id="clip0_96_132">
<rect width="200" height="200" fill="white"/>
</clipPath>
</defs>
</svg>
