<svg width="256" height="256" viewBox="0 0 256 256" fill="none" xmlns="http://www.w3.org/2000/svg">
<path d="M187.417 231.402H68.839V244.568H187.417V231.402ZM209.303 210.678V198.615H47.129V210.679L209.303 210.678ZM217.126 194.437V182.375H39.2315V194.437H217.126ZM201.403 226.915V214.853H54.9545V226.915H201.403ZM170.234 143.928L152.068 143.939C135.75 143.303 136.5 121.636 152.068 121.624H204.122L204.143 99.504H52.292L52.308 121.624H104.362C119.391 121.829 121.149 143.109 104.362 143.939L86.2005 143.928C70.0615 143.928 70.0615 166.238 86.2005 166.238H170.234C185.889 166.238 185.889 143.928 170.234 143.928ZM54.741 11.9735L54.792 90.4165H201.648L201.704 11.9735H54.741ZM228.807 79.425H248.068C252.446 79.425 256 82.9845 256 87.376V108.803C256 113.194 252.446 116.754 248.068 116.754H228.807L228.802 232.651C228.802 244.461 219.255 254.03 207.478 254.03H48.522C36.742 254.03 27.196 244.461 27.196 232.651V116.751H7.9295C3.5485 116.751 0 113.191 0 108.8V87.3725C0 82.9815 3.551 79.4215 7.93 79.4215H27.19L27.18 65.3595H43.687V1.96997H212.31V65.36H228.818L228.807 79.425Z" fill="black"/>
</svg>
