<svg width="256" height="256" viewBox="0 0 256 256" fill="none" xmlns="http://www.w3.org/2000/svg">
<path d="M128 32.032C123.802 32.032 119.645 32.8589 115.766 34.4654C111.888 36.0719 108.364 38.4267 105.395 41.3952C102.427 44.3637 100.072 47.8878 98.4654 51.7664C96.8589 55.6449 96.032 59.8019 96.032 64C96.032 68.1981 96.8589 72.3551 98.4654 76.2336C100.072 80.1121 102.427 83.6363 105.395 86.6048C108.364 89.5733 111.888 91.928 115.766 93.5346C119.645 95.1411 123.802 95.968 128 95.968C136.478 95.968 144.61 92.5999 150.605 86.6048C156.6 80.6096 159.968 72.4784 159.968 64C159.968 55.5215 156.6 47.3904 150.605 41.3952C144.61 35.4 136.478 32.032 128 32.032ZM200 48C193.635 48 187.53 50.5285 183.029 55.0294C178.529 59.5303 176 65.6348 176 72C176 78.3652 178.529 84.4697 183.029 88.9705C187.53 93.4714 193.635 96 200 96C206.365 96 212.47 93.4714 216.971 88.9705C221.471 84.4697 224 78.3652 224 72C224 65.6348 221.471 59.5303 216.971 55.0294C212.47 50.5285 206.365 48 200 48ZM56 48C49.6348 48 43.5303 50.5285 39.0294 55.0294C34.5286 59.5303 32 65.6348 32 72C32 78.3652 34.5286 84.4697 39.0294 88.9705C43.5303 93.4714 49.6348 96 56 96C62.3652 96 68.4697 93.4714 72.9706 88.9705C77.4714 84.4697 80 78.3652 80 72C80 65.6348 77.4714 59.5303 72.9706 55.0294C68.4697 50.5285 62.3652 48 56 48ZM80 127.888C80.0296 123.664 81.7283 119.623 84.7257 116.647C87.7231 113.67 91.7759 112 96 112H160C164.243 112 168.313 113.686 171.314 116.686C174.314 119.687 176 123.757 176 128V176C176.004 181.036 175.216 186.041 173.664 190.832C170.121 201.691 162.823 210.932 153.08 216.894C143.337 222.857 131.788 225.151 120.506 223.364C109.224 221.578 98.9485 215.828 91.5245 207.147C84.1005 198.466 80.0144 187.423 80 176V127.888ZM64 128C64 122.16 65.552 116.704 68.288 112H32C27.7565 112 23.6869 113.686 20.6863 116.686C17.6857 119.687 16 123.757 16 128V168C15.9978 174.549 17.6036 180.998 20.6764 186.781C23.7491 192.565 28.1948 197.505 33.6231 201.169C39.0513 204.832 45.2961 207.107 51.8089 207.793C58.3217 208.479 64.9034 207.556 70.976 205.104C66.3807 196.086 63.9899 186.106 64 175.984V128ZM192 128V176C192 186.48 189.488 196.368 185.024 205.104C191.097 207.556 197.678 208.479 204.191 207.793C210.704 207.107 216.949 204.832 222.377 201.169C227.805 197.505 232.251 192.565 235.324 186.781C238.396 180.998 240.002 174.549 240 168V128C240 123.757 238.314 119.687 235.314 116.686C232.313 113.686 228.243 112 224 112H187.712C190.432 116.704 192 122.16 192 128Z" fill="black"/>
</svg>
