<svg width="256" height="256" viewBox="0 0 256 256" fill="none" xmlns="http://www.w3.org/2000/svg">
<path d="M106.667 53.3333L128 32M85.3333 170.667L170.667 85.3333M128 224L149.333 202.667M176 202.667C183.072 202.667 189.855 199.857 194.856 194.856C199.857 189.855 202.667 183.072 202.667 176C202.667 168.928 199.857 162.145 194.856 157.144C189.855 152.143 183.072 149.333 176 149.333C168.928 149.333 162.145 152.143 157.144 157.144C152.143 162.145 149.333 168.928 149.333 176C149.333 183.072 152.143 189.855 157.144 194.856C162.145 199.857 168.928 202.667 176 202.667ZM80 106.667C87.0724 106.667 93.8552 103.857 98.8562 98.8562C103.857 93.8552 106.667 87.0724 106.667 80C106.667 72.9276 103.857 66.1448 98.8562 61.1438C93.8552 56.1428 87.0724 53.3333 80 53.3333C72.9276 53.3333 66.1448 56.1428 61.1438 61.1438C56.1428 66.1448 53.3333 72.9276 53.3333 80C53.3333 87.0724 56.1428 93.8552 61.1438 98.8562C66.1448 103.857 72.9276 106.667 80 106.667ZM58.6667 224C65.7391 224 72.5219 221.19 77.5228 216.19C82.5238 211.189 85.3333 204.406 85.3333 197.333C85.3333 190.261 82.5238 183.478 77.5228 178.477C72.5219 173.476 65.7391 170.667 58.6667 170.667C51.5942 170.667 44.8115 173.476 39.8105 178.477C34.8095 183.478 32 190.261 32 197.333C32 204.406 34.8095 211.189 39.8105 216.19C44.8115 221.19 51.5942 224 58.6667 224ZM197.333 85.3333C204.406 85.3333 211.189 82.5238 216.19 77.5228C221.19 72.5219 224 65.7391 224 58.6667C224 51.5942 221.19 44.8115 216.19 39.8105C211.189 34.8095 204.406 32 197.333 32C190.261 32 183.478 34.8095 178.477 39.8105C173.476 44.8115 170.667 51.5942 170.667 58.6667C170.667 65.7391 173.476 72.5219 178.477 77.5228C183.478 82.5238 190.261 85.3333 197.333 85.3333Z" stroke="black" stroke-width="21.3333" stroke-linecap="round" stroke-linejoin="round"/>
</svg>
