<svg width="200" height="180" viewBox="0 0 200 180" fill="none" xmlns="http://www.w3.org/2000/svg">
<g clip-path="url(#clip0_95_130)">
<path d="M164.439 58.282C162.311 57.544 160.164 56.8604 158.002 56.2317C158.365 54.7317 158.7 53.2499 158.997 51.7941C163.87 27.888 160.684 8.62881 149.802 2.28776C139.369 -3.79119 122.305 2.54749 105.073 17.703C103.374 19.1993 101.714 20.7388 100.092 22.3199C99.007 21.2685 97.9024 20.2375 96.7792 19.2275C78.7184 3.02276 60.6155 -3.80698 49.7453 2.55223C39.3211 8.65013 36.2345 26.7551 40.6219 49.4114C41.0584 51.6553 41.5513 53.8876 42.1 56.1062C39.5375 56.842 37.0649 57.6251 34.6985 58.4588C13.5237 65.9193 0.0012207 77.6106 0.0012207 89.7378C0.0012207 102.263 14.5183 114.826 36.5727 122.443C38.3607 123.058 40.1636 123.628 41.9797 124.152C41.3899 126.542 40.8663 128.948 40.4094 131.367C36.2266 153.63 39.493 171.307 49.889 177.366C60.6264 183.624 78.6481 177.192 96.1956 161.691C97.6185 160.431 99.01 159.135 100.369 157.805C102.125 159.517 103.928 161.179 105.775 162.789C122.773 177.57 139.561 183.538 149.947 177.462C160.674 171.187 164.161 152.197 159.634 129.093C159.277 127.283 158.878 125.482 158.435 123.691C159.7 123.312 160.943 122.922 162.154 122.517C185.081 114.841 199.999 102.43 199.999 89.7378C199.999 77.5664 186.04 65.7962 164.439 58.282ZM159.467 114.322C158.373 114.687 157.251 115.04 156.107 115.384C153.576 107.286 150.161 98.6762 145.98 89.7796C149.969 81.0954 153.254 72.5951 155.714 64.5504C157.76 65.1488 159.745 65.7796 161.659 66.4451C180.167 72.8841 191.456 82.4028 191.456 89.7378C191.456 97.5504 179.263 107.693 159.467 114.322ZM151.253 130.77C153.254 140.986 153.54 150.222 152.214 157.444C151.023 163.932 148.628 168.258 145.665 169.991C139.363 173.678 125.884 168.886 111.348 156.245C109.629 154.747 107.952 153.202 106.319 151.61C111.955 145.382 117.587 138.142 123.084 130.1C132.752 129.234 141.887 127.816 150.17 125.881C150.569 127.502 150.93 129.132 151.253 130.77ZM68.1849 169.354C62.0272 171.551 57.1225 171.614 54.1577 169.887C47.8492 166.21 45.2265 152.016 48.8039 132.977C49.2291 130.727 49.716 128.49 50.264 126.267C58.4561 128.099 67.524 129.416 77.2153 130.21C82.7496 138.079 88.5441 145.311 94.3839 151.644C93.1428 152.858 91.8724 154.04 90.5738 155.191C82.8137 162.045 75.038 166.908 68.1849 169.354ZM39.3368 114.274C29.5845 110.905 21.5307 106.527 16.0104 101.75C11.0495 97.458 8.54567 93.1956 8.54567 89.7378C8.54567 82.3783 19.4026 72.9914 37.511 66.6117C39.7086 65.838 42.0086 65.1078 44.3953 64.4225C46.8984 72.6488 50.1812 81.2501 54.1429 89.9478C50.1296 98.7741 46.8 107.513 44.2727 115.836C42.6149 115.356 40.9691 114.835 39.3368 114.274ZM49.007 47.7528C45.2484 28.342 47.7445 13.6996 54.0265 10.0246C60.717 6.11039 75.5122 11.6912 91.1066 25.6838C92.1234 26.5983 93.1239 27.5314 94.1073 28.4825C88.2964 34.788 82.5551 41.9667 77.07 49.7888C67.6638 50.6699 58.66 52.0846 50.382 53.9801C49.8719 51.9166 49.4135 49.8396 49.007 47.7528ZM135.277 69.2809C133.322 65.868 131.294 62.498 129.195 59.1733C135.576 59.9888 141.69 61.0712 147.432 62.3943C145.708 67.9775 143.56 73.8141 141.031 79.7983C139.183 76.2541 137.264 72.7476 135.277 69.2809ZM100.096 34.6538C104.037 38.9683 107.984 43.7849 111.866 49.0112C103.991 48.6353 96.1028 48.6338 88.2277 49.0064C92.1136 43.8283 96.094 39.018 100.096 34.6538ZM64.6896 69.3393C62.7274 72.7782 60.8449 76.2628 59.0436 79.7904C56.5561 73.8275 54.4272 67.9641 52.689 62.302C58.3952 61.012 64.4803 59.9572 70.8208 59.1567C68.6985 62.5017 66.6542 65.8974 64.6896 69.3393ZM71.0029 120.933C64.4521 120.194 58.2756 119.194 52.571 117.939C54.3366 112.175 56.5124 106.187 59.0538 100.096C60.8622 103.627 62.7526 107.113 64.7232 110.554C66.7498 114.091 68.8482 117.555 71.0029 120.933ZM100.332 145.43C96.2823 141.016 92.2433 136.131 88.2988 130.878C92.1284 131.03 96.0323 131.107 100 131.107C104.077 131.107 108.106 131.015 112.073 130.836C108.178 136.184 104.246 141.076 100.332 145.43ZM141.112 99.7854C143.785 105.943 146.038 111.9 147.827 117.564C142.029 118.902 135.768 119.979 129.171 120.778C131.285 117.392 133.332 113.963 135.311 110.495C137.323 106.969 139.257 103.398 141.112 99.7854ZM127.91 106.181C124.881 111.499 121.681 116.716 118.316 121.824C112.22 122.261 106.111 122.477 100 122.474C93.7761 122.474 87.7222 122.278 81.8926 121.896C78.4397 116.8 75.1788 111.574 72.1169 106.228C69.0694 100.911 66.2237 95.4792 63.5842 89.9438C66.2169 84.4071 69.0549 78.9725 72.0919 73.6514L72.0911 73.6522C75.127 68.3298 78.3619 63.1258 81.7887 58.0514C87.7363 57.5967 93.8354 57.3599 99.9994 57.3599C106.192 57.3599 112.299 57.5991 118.245 58.057C121.638 63.1237 124.852 68.3098 127.882 73.6056C130.929 78.915 133.805 84.3231 136.504 89.8214C133.832 95.376 130.966 100.833 127.91 106.181ZM145.535 9.76723C152.232 13.6704 154.836 29.4101 150.629 50.0509C150.36 51.3678 150.058 52.7091 149.73 54.0693C141.432 52.1335 132.422 50.6943 122.988 49.7999C117.493 41.8917 111.799 34.702 106.082 28.4778C107.58 27.0184 109.114 25.5969 110.682 24.2146C125.448 11.2301 139.247 6.10328 145.535 9.76723ZM100 71.6904C109.863 71.6904 117.859 79.7706 117.859 89.7378C117.859 99.7049 109.863 107.785 100 107.785C90.137 107.785 82.141 99.7049 82.141 89.7378C82.141 79.7706 90.137 71.6904 100 71.6904Z" fill="#00D8FF"/>
</g>
<defs>
<clipPath id="clip0_95_130">
<rect width="200" height="180" fill="white"/>
</clipPath>
</defs>
</svg>
