<svg width="256" height="256" viewBox="0 0 256 256" fill="none" xmlns="http://www.w3.org/2000/svg">
<g clip-path="url(#clip0_93_110)">
<path d="M255.975 76.1278L127.973 38.0642L0.00662231 76.1278V38.0642L127.991 0L255.993 38.0642V76.1278H255.975Z" fill="#A435F0"/>
<path d="M0.00646973 108.092H67.05V192C67.05 213.678 98.4774 224.245 127.991 224.245C157.759 224.245 188.95 213.397 188.95 191.709V108.092H255.993V193.999C255.993 213.969 243.805 229.379 219.429 239.946C195.034 250.504 164.573 255.646 127.426 255.646C90.3148 255.646 59.8354 250.513 36.0246 239.946C12.1948 229.387 0.00646973 214.551 0.00646973 194.852V108.092Z" fill="black"/>
</g>
<defs>
<clipPath id="clip0_93_110">
<rect width="256" height="256" fill="white"/>
</clipPath>
</defs>
</svg>
