<svg width="256" height="256" viewBox="0 0 256 256" fill="none" xmlns="http://www.w3.org/2000/svg">
<path d="M212.693 59.6266V196.16C212.693 200.924 211.307 205.191 208.533 208.96C205.76 212.658 202.027 215.147 197.333 216.427L136.213 234.027C135.36 234.24 134.4 234.453 133.333 234.667H130.987C128.64 234.667 126.507 234.347 124.587 233.707C122.667 233.067 120.711 232.213 118.72 231.147L78.72 208.533C77.2267 207.68 76.0533 206.578 75.2 205.227C74.3467 203.875 73.92 202.347 73.92 200.64C73.92 198.08 74.8445 195.911 76.6933 194.133C78.4711 192.355 80.64 191.467 83.2 191.467H135.04V65.4933L96 79.3599C92.9422 80.4977 90.4533 82.4888 88.5333 85.3333C86.6133 88.0355 85.6533 91.0577 85.6533 94.3999V166.187C85.6533 169.173 84.9067 171.875 83.4133 174.293C81.9911 176.711 79.9645 178.631 77.3333 180.053L58.9867 190.08C57.28 191.004 55.5733 191.467 53.8667 191.467C50.9511 191.467 48.4622 190.435 46.4 188.373C44.3378 186.311 43.3067 183.787 43.3067 180.8V79.6799C43.3067 75.9821 44.2667 72.5333 46.1867 69.3333C48.1778 65.7777 50.7733 63.0755 53.9733 61.2266L119.68 23.8933C121.173 23.0399 122.773 22.3999 124.48 21.9733C126.187 21.5466 127.893 21.3333 129.6 21.3333C130.809 21.3333 131.911 21.4399 132.907 21.6533C133.902 21.7955 135.004 22.0444 136.213 22.3999L197.333 39.3599C199.68 39.9999 201.778 40.9599 203.627 42.2399C205.476 43.5199 207.076 45.0488 208.427 46.8266C209.849 48.6755 210.916 50.6666 211.627 52.7999C212.338 55.0044 212.693 57.2799 212.693 59.6266ZM198.613 196.16V59.6266C198.613 57.991 198.187 56.5688 197.333 55.3599C196.267 54.0088 194.951 53.191 193.387 52.9066L163.307 44.5866C161.102 43.9466 158.756 43.3066 156.267 42.6666C153.92 41.8844 151.609 41.2088 149.333 40.6399V215.573L193.387 202.667C194.951 202.382 196.267 201.635 197.333 200.427C198.187 199.218 198.613 197.795 198.613 196.16Z" fill="black"/>
</svg>
