<svg width="256" height="256" viewBox="0 0 256 256" fill="none" xmlns="http://www.w3.org/2000/svg">
<path d="M32 21.3333C26.342 21.3333 20.9158 23.5809 16.915 27.5816C12.9142 31.5824 10.6666 37.0086 10.6666 42.6666V170.667C10.6666 176.325 12.9142 181.751 16.915 185.752C20.9158 189.752 26.342 192 32 192H106.667V213.333H85.3333V234.667H170.667V213.333H149.333V192H224C229.658 192 235.084 189.752 239.085 185.752C243.086 181.751 245.333 176.325 245.333 170.667V42.6666C245.333 37.0086 243.086 31.5824 239.085 27.5816C235.084 23.5809 229.658 21.3333 224 21.3333M32 42.6666H224V170.667H32M160 53.3333L122.667 90.6666L160 128L174.933 113.067L152.533 90.6666L174.933 68.2666M96 85.3333L81.0666 100.267L103.467 122.667L81.0666 145.067L96 160L133.333 122.667" fill="black"/>
</svg>
