<svg width="256" height="256" viewBox="0 0 256 256" fill="none" xmlns="http://www.w3.org/2000/svg">
<g clip-path="url(#clip0_90_65)">
<path fill-rule="evenodd" clip-rule="evenodd" d="M109.568 51.1467C110.682 49.3649 111.433 47.3813 111.78 45.309C112.127 43.2367 112.063 41.1163 111.59 39.069C111.118 37.0216 110.247 35.0874 109.027 33.3767C107.807 31.666 106.262 30.2123 104.48 29.0987C102.698 27.9851 100.715 27.2333 98.6423 26.8864C96.5699 26.5394 94.4496 26.604 92.4022 27.0764C90.3549 27.5489 88.4207 28.42 86.71 29.64C84.9993 30.86 83.5456 32.4049 82.432 34.1867L29.0987 119.52C27.5093 122.063 26.6666 125.001 26.6666 128C26.6666 130.999 27.5093 133.937 29.0987 136.48L82.432 221.813C83.5456 223.595 84.9993 225.14 86.71 226.36C88.4207 227.58 90.3549 228.451 92.4022 228.924C94.4496 229.396 96.5699 229.461 98.6423 229.114C100.715 228.767 102.698 228.015 104.48 226.901C106.262 225.788 107.807 224.334 109.027 222.623C110.247 220.913 111.118 218.978 111.59 216.931C112.063 214.884 112.127 212.763 111.78 210.691C111.433 208.619 110.682 206.635 109.568 204.853L61.536 128L109.568 51.1467ZM146.432 51.1467C145.318 49.3649 144.567 47.3813 144.22 45.309C143.873 43.2367 143.937 41.1163 144.41 39.069C145.364 34.9342 147.922 31.3477 151.52 29.0987C155.118 26.8497 159.463 26.1222 163.598 27.0764C167.733 28.0306 171.319 30.5883 173.568 34.1867L226.901 119.52C228.491 122.063 229.333 125.001 229.333 128C229.333 130.999 228.491 133.937 226.901 136.48L173.568 221.813C172.454 223.595 171.001 225.14 169.29 226.36C167.579 227.58 165.645 228.451 163.598 228.924C161.55 229.396 159.43 229.461 157.358 229.114C155.285 228.767 153.302 228.015 151.52 226.901C149.738 225.788 148.193 224.334 146.973 222.623C145.753 220.913 144.882 218.978 144.41 216.931C143.937 214.884 143.873 212.763 144.22 210.691C144.567 208.619 145.318 206.635 146.432 204.853L194.464 128L146.432 51.1467Z" fill="black"/>
</g>
<defs>
<clipPath id="clip0_90_65">
<rect width="256" height="256" fill="white"/>
</clipPath>
</defs>
</svg>
