<svg width="256" height="256" viewBox="0 0 256 256" fill="none" xmlns="http://www.w3.org/2000/svg">
<g clip-path="url(#clip0_91_73)">
<path fill-rule="evenodd" clip-rule="evenodd" d="M118.005 26.3361C120.63 24.2374 123.848 23.0183 127.205 22.8517C130.561 22.6851 133.885 23.5795 136.704 25.4081L137.995 26.3361L183.989 63.1361C186.233 64.9296 188.092 67.158 189.454 69.6874C190.816 72.2168 191.653 74.9953 191.915 77.8561L192 79.7867V106.667H213.333C218.715 106.665 223.899 108.698 227.846 112.357C231.792 116.017 234.21 121.033 234.613 126.4L234.667 128V212.267C234.668 215.158 233.602 217.948 231.673 220.102C229.744 222.255 227.087 223.621 224.213 223.936L222.933 224H33.0666C30.1754 224.002 27.3853 222.935 25.2318 221.006C23.0782 219.077 21.7127 216.421 21.3973 213.547L21.3333 212.267V128C21.3316 122.618 23.3643 117.434 27.0239 113.488C30.6836 109.541 35.6997 107.124 41.0666 106.72L42.6666 106.667H64V79.7867C63.9998 76.914 64.5798 74.0709 65.7052 71.4278C66.8306 68.7847 68.4783 66.3962 70.5493 64.4054L72.0106 63.1254L118.005 26.3361ZM128 45.6534L85.3333 79.7867V202.667H170.667V79.7867L128 45.6534ZM213.333 128H192V202.667H213.333V128ZM64 128H42.6666V202.667H64V128ZM128 85.3334C132.202 85.3334 136.363 86.1611 140.246 87.7692C144.128 89.3774 147.656 91.7345 150.627 94.706C153.599 97.6775 155.956 101.205 157.564 105.088C159.172 108.97 160 113.131 160 117.333C160 121.536 159.172 125.697 157.564 129.579C155.956 133.462 153.599 136.989 150.627 139.961C147.656 142.932 144.128 145.289 140.246 146.898C136.363 148.506 132.202 149.333 128 149.333C119.513 149.333 111.374 145.962 105.373 139.961C99.3714 133.96 96 125.82 96 117.333C96 108.846 99.3714 100.707 105.373 94.706C111.374 88.7048 119.513 85.3334 128 85.3334ZM128 106.667C125.171 106.667 122.458 107.791 120.458 109.791C118.457 111.791 117.333 114.504 117.333 117.333C117.333 120.162 118.457 122.875 120.458 124.876C122.458 126.876 125.171 128 128 128C130.829 128 133.542 126.876 135.542 124.876C137.543 122.875 138.667 120.162 138.667 117.333C138.667 114.504 137.543 111.791 135.542 109.791C133.542 107.791 130.829 106.667 128 106.667Z" fill="black"/>
</g>
<defs>
<clipPath id="clip0_91_73">
<rect width="256" height="256" fill="white"/>
</clipPath>
</defs>
</svg>
