<svg width="256" height="256" viewBox="0 0 256 256" fill="none" xmlns="http://www.w3.org/2000/svg">
<g clip-path="url(#clip0_93_113)">
<path d="M28 0H228C243.456 0 256 12.544 256 28V228C256 235.426 253.05 242.548 247.799 247.799C242.548 253.05 235.426 256 228 256H28C20.5739 256 13.452 253.05 8.20101 247.799C2.94999 242.548 0 235.426 0 228L0 28C0 12.544 12.544 0 28 0ZM24 28V228C24 230.208 25.792 232 28 232H228C229.061 232 230.078 231.579 230.828 230.828C231.579 230.078 232 229.061 232 228V28C232 26.9391 231.579 25.9217 230.828 25.1716C230.078 24.4214 229.061 24 228 24H28C26.9391 24 25.9217 24.4214 25.1716 25.1716C24.4214 25.9217 24 26.9391 24 28ZM188 48C191.183 48 194.235 49.2643 196.485 51.5147C198.736 53.7652 200 56.8174 200 60V180C200 183.183 198.736 186.235 196.485 188.485C194.235 190.736 191.183 192 188 192C184.817 192 181.765 190.736 179.515 188.485C177.264 186.235 176 183.183 176 180V60C176 56.8174 177.264 53.7652 179.515 51.5147C181.765 49.2643 184.817 48 188 48ZM56 60C56 56.8174 57.2643 53.7652 59.5147 51.5147C61.7652 49.2643 64.8174 48 68 48C71.1826 48 74.2348 49.2643 76.4853 51.5147C78.7357 53.7652 80 56.8174 80 60V148C80 151.183 78.7357 154.235 76.4853 156.485C74.2348 158.736 71.1826 160 68 160C64.8174 160 61.7652 158.736 59.5147 156.485C57.2643 154.235 56 151.183 56 148V60ZM128 48C131.183 48 134.235 49.2643 136.485 51.5147C138.736 53.7652 140 56.8174 140 60V116C140 119.183 138.736 122.235 136.485 124.485C134.235 126.736 131.183 128 128 128C124.817 128 121.765 126.736 119.515 124.485C117.264 122.235 116 119.183 116 116V60C116 56.8174 117.264 53.7652 119.515 51.5147C121.765 49.2643 124.817 48 128 48Z" fill="black"/>
</g>
<defs>
<clipPath id="clip0_93_113">
<rect width="256" height="256" fill="white"/>
</clipPath>
</defs>
</svg>
