<svg width="256" height="256" viewBox="0 0 256 256" fill="none" xmlns="http://www.w3.org/2000/svg">
<path d="M128 140C128 143.183 126.736 146.235 124.485 148.485C122.235 150.736 119.183 152 116 152H72C68.8174 152 65.7652 150.736 63.5147 148.485C61.2643 146.235 60 143.183 60 140C60 136.817 61.2643 133.765 63.5147 131.515C65.7652 129.264 68.8174 128 72 128H116C119.183 128 122.235 129.264 124.485 131.515C126.736 133.765 128 136.817 128 140ZM116 88H72C68.8174 88 65.7652 89.2643 63.5147 91.5147C61.2643 93.7652 60 96.8174 60 100C60 103.183 61.2643 106.235 63.5147 108.485C65.7652 110.736 68.8174 112 72 112H116C119.183 112 122.235 110.736 124.485 108.485C126.736 106.235 128 103.183 128 100C128 96.8174 126.736 93.7652 124.485 91.5147C122.235 89.2643 119.183 88 116 88ZM236 167.14V228C236 230.101 235.448 232.166 234.399 233.987C233.35 235.808 231.842 237.322 230.025 238.377C228.207 239.432 226.144 239.991 224.043 239.999C221.942 240.006 219.875 239.462 218.05 238.42L196 225.82L174 238.42C172.174 239.474 170.102 240.029 167.993 240.028C165.884 240.026 163.813 239.47 161.988 238.413C160.163 237.357 158.649 235.838 157.597 234.01C156.546 232.182 155.995 230.109 156 228V204H40C34.6957 204 29.6086 201.893 25.8579 198.142C22.1071 194.391 20 189.304 20 184V56C20 50.6957 22.1071 45.6086 25.8579 41.8579C29.6086 38.1071 34.6957 36 40 36H216C221.304 36 226.391 38.1071 230.142 41.8579C233.893 45.6086 236 50.6957 236 56V88.86C246.256 99.3065 252.001 113.361 252.001 128C252.001 142.639 246.256 156.694 236 167.14ZM196 160C202.329 160 208.516 158.123 213.778 154.607C219.041 151.091 223.142 146.093 225.564 140.246C227.986 134.399 228.62 127.965 227.385 121.757C226.15 115.55 223.103 109.848 218.627 105.373C214.152 100.897 208.45 97.8496 202.243 96.6149C196.035 95.3801 189.601 96.0138 183.754 98.4359C177.907 100.858 172.909 104.959 169.393 110.222C165.877 115.484 164 121.671 164 128C164 136.487 167.371 144.626 173.373 150.627C179.374 156.629 187.513 160 196 160ZM156 180V167.14C147.343 158.268 141.874 146.775 140.45 134.461C139.026 122.147 141.728 109.709 148.133 99.0959C154.537 88.4828 164.282 80.2945 175.84 75.8145C187.398 71.3345 200.116 70.8159 212 74.34V60H44V180H156ZM212 207.32V181.66C201.561 184.78 190.439 184.78 180 181.66V207.32L190.05 201.58C191.862 200.545 193.913 200.001 196 200.001C198.087 200.001 200.138 200.545 201.95 201.58L212 207.32Z" fill="black"/>
</svg>
